<svg version="1.1" xmlns="http://www.w3.org/2000/svg" xmlns:xlink="http://www.w3.org/1999/xlink" width="17.4" height="142.28335" viewBox="0,0,17.4,142.28335"><defs><linearGradient x1="240" y1="40.37416" x2="240" y2="176.12201" gradientUnits="userSpaceOnUse" id="color-1"><stop offset="0" stop-color="#00d1ff" stop-opacity="0"/><stop offset="1" stop-color="#00d1ff" stop-opacity="0.22745"/></linearGradient><linearGradient x1="240" y1="39.275" x2="240" y2="175.02285" gradientUnits="userSpaceOnUse" id="color-2"><stop offset="0" stop-color="#00d1ff" stop-opacity="0"/><stop offset="1" stop-color="#00d1ff" stop-opacity="0.21176"/></linearGradient><linearGradient x1="240" y1="41.11682" x2="240" y2="176.86467" gradientUnits="userSpaceOnUse" id="color-3"><stop offset="0" stop-color="#ffffff" stop-opacity="0"/><stop offset="1" stop-color="#ffffff" stop-opacity="0.38039"/></linearGradient></defs><g transform="translate(-231.29999,-39.27501)"><g data-paper-data="{&quot;isPaintingLayer&quot;:true}" fill-rule="nonzero" stroke="none" stroke-linecap="butt" stroke-linejoin="miter" stroke-miterlimit="10" stroke-dasharray="" stroke-dashoffset="0" style="mix-blend-mode: normal"><g><path d="M233.8,176.12201l6.125,-135.92609h0.025l6.25,135.9261c0,0 -4.1104,4.51541 -6.15529,4.51541c-2.08757,0 -6.2447,-4.51541 -6.2447,-4.51541z" fill="url(#color-1)" stroke-width="NaN"/><path d="M231.3,175.02285l8.71645,-135.70864l-0.03291,-0.0392l8.71645,135.74786c0,0 -5.86029,6.53549 -8.73863,6.53549c-2.92102,0 -8.66137,-6.53549 -8.66137,-6.53549z" fill="url(#color-2)" stroke-width="NaN"/><path d="M236.3,176.86467v-135.74785h7.4v135.74785c0,0 -2.53328,2.85184 -3.73403,2.85184c-1.26278,0 -3.66597,-2.85184 -3.66597,-2.85184z" fill="url(#color-3)" stroke-width="NaN"/></g></g></g></svg>