<svg version="1.1" xmlns="http://www.w3.org/2000/svg" xmlns:xlink="http://www.w3.org/1999/xlink" width="147.0158" height="27.62527" viewBox="0,0,147.0158,27.62527"><defs><linearGradient x1="194.64258" y1="180.02167" x2="309.63239" y2="180.02167" gradientUnits="userSpaceOnUse" id="color-1"><stop offset="0" stop-color="#a4007e" stop-opacity="0.54902"/><stop offset="1" stop-color="#a4007e" stop-opacity="0"/></linearGradient></defs><g transform="translate(-166.49211,-165.81691)"><g data-paper-data="{&quot;isPaintingLayer&quot;:true}" fill-rule="nonzero" stroke-linecap="butt" stroke-linejoin="miter" stroke-miterlimit="10" stroke-dasharray="" stroke-dashoffset="0" style="mix-blend-mode: normal"><path d="M168.20426,191.71448c0,0 -1.21215,-0.87528 -1.21215,-3.78655c0,-5.22204 0,-13.04476 0,-15.99623c0,-2.24564 1.29264,-3.72912 1.29264,-3.72912c0,0 0.9052,-1.28487 3.71347,-1.28487c13.12144,0 112.43028,0 136.00216,0c3.20294,0 3.90416,1.13446 3.90416,1.13446c0,0 1.10337,0.96802 1.10337,3.8788c0,5.22264 0,13.04745 0,15.99904c0,2.24499 -0.88581,3.38043 -0.88581,3.38043c0,0 -0.91856,1.63174 -4.12113,1.63174c-23.5704,0 -122.8776,0 -136.00098,0c-2.80919,0 -3.79574,-1.2277 -3.79574,-1.2277z" fill="#000000" stroke="none" stroke-width="0"/><path d="M168.59229,191.86119c0,0 -1.44158,-1.20338 -1.44158,-4.39953c0,-5.7644 0,-14.32651 0,-17.02774c0,-1.62636 1.09834,-2.35474 1.09834,-2.35474c0,0 0.84134,-1.02969 2.61635,-1.02969c4.49162,0 23.78635,0 23.78635,0v25.94437c0,0 -16.53035,0 -21.48669,0c-2.62223,0 -4.57277,-1.13267 -4.57277,-1.13267z" fill-opacity="0.54902" fill="#ff00c3" stroke="none" stroke-width="0"/><path d="M284.48465,192.99385c-20.72391,0 -89.84208,0 -89.84208,0v-25.94437c0,0 80.67685,0 99.45761,0c7.42183,0 10.93971,1.02969 10.93971,1.02969c0,0 4.59248,0.72838 4.59248,2.35474c0,2.70123 0,11.26335 0,17.02774c0,3.19615 -6.02765,4.39953 -6.02765,4.39953c0,0 -8.15577,1.13267 -19.12008,1.13267z" data-paper-data="{&quot;index&quot;:null}" fill="url(#color-1)" stroke="none" stroke-width="0"/><path d="M168.20426,191.71448c0,0 -1.21215,-0.87528 -1.21215,-3.78655c0,-5.22204 0,-13.04476 0,-15.99623c0,-2.24564 1.19295,-3.52973 1.19295,-3.52973c0,0 1.00489,-1.48426 3.81316,-1.48426c13.12144,0 112.43028,0 136.00216,0c3.20294,0 3.90416,1.13446 3.90416,1.13446c0,0 1.10337,0.96802 1.10337,3.8788c0,5.22264 0,13.04745 0,15.99904c0,2.24499 -0.88581,3.38043 -0.88581,3.38043c0,0 -0.91856,1.63174 -4.12113,1.63174c-23.5704,0 -122.8776,0 -136.00098,0c-2.80919,0 -3.79574,-1.2277 -3.79574,-1.2277z" fill="none" stroke="#ff57d8" stroke-width="1"/><text transform="translate(170.66365,187.48358) scale(0.5,0.5)" font-size="40" xml:space="preserve" fill="#ffffff" fill-rule="nonzero" stroke-opacity="0" stroke="#000000" stroke-width="0" stroke-linecap="butt" stroke-linejoin="miter" stroke-miterlimit="10" stroke-dasharray="" stroke-dashoffset="0" font-family="Sans Serif" font-weight="normal" text-anchor="start" style="mix-blend-mode: normal"><tspan x="0" dy="0">∞</tspan></text><text transform="translate(201.46365,184.92472) scale(0.36642,0.36642)" font-size="40" xml:space="preserve" fill="#ffffff" fill-rule="nonzero" stroke="none" stroke-width="1" stroke-linecap="butt" stroke-linejoin="miter" stroke-miterlimit="10" stroke-dasharray="" stroke-dashoffset="0" font-family="Sans Serif" font-weight="normal" text-anchor="start" style="mix-blend-mode: normal"><tspan x="0" dy="0">Infinity</tspan></text></g></g></svg>