<svg version="1.1" xmlns="http://www.w3.org/2000/svg" xmlns:xlink="http://www.w3.org/1999/xlink" width="23.95455" height="23.95455" viewBox="0,0,23.95455,23.95455"><defs><radialGradient cx="240.00002" cy="180" r="10.60228" gradientUnits="userSpaceOnUse" id="color-1"><stop offset="0" stop-color="#eaeaea"/><stop offset="1" stop-color="#cfcfcf"/></radialGradient></defs><g transform="translate(-228.02275,-168.02273)"><g data-paper-data="{&quot;isPaintingLayer&quot;:true}" fill-rule="nonzero" stroke="none" stroke-width="0" stroke-linecap="butt" stroke-linejoin="miter" stroke-miterlimit="10" stroke-dasharray="" stroke-dashoffset="0" style="mix-blend-mode: normal"><path d="M251.51064,168.58939c0,0 0.46667,0.4805 0.46667,1.56181c0,2.75642 0,14.9555 0,19.8168c0,1.24546 -0.42857,1.41404 -0.42857,1.41404c0,0 -0.2791,0.59524 -1.44309,0.59524c-4.78192,0 -17.26526,0 -20.02143,0c-1.05161,0 -1.51384,-0.54762 -1.51384,-0.54762c0,0 -0.54762,-0.27913 -0.54762,-1.58071c0,-4.91433 0,-16.91322 0,-19.66441c0,-1.09601 0.46667,-1.6618 0.46667,-1.6618c0,0 0.59913,-0.5 1.69514,-0.5c2.7851,0 15.07167,0 19.86667,0c1.19612,0 1.45941,0.56667 1.45941,0.56667z" data-paper-data="{&quot;index&quot;:null}" fill="#000000"/><path d="M250.18918,169.89933c0,0 0.4131,0.42534 0.4131,1.38251c0,2.43998 0,13.2386 0,17.54182c0,1.10248 -0.37937,1.25171 -0.37937,1.25171c0,0 -0.24706,0.52691 -1.27742,0.52691c-4.23295,0 -15.2832,0 -17.72296,0c-0.93088,0 -1.34005,-0.48475 -1.34005,-0.48475c0,0 -0.48475,-0.24709 -0.48475,-1.39924c0,-4.35016 0,-14.97157 0,-17.40692c0,-0.97019 0.4131,-1.47102 0.4131,-1.47102c0,0 0.53035,-0.4426 1.50054,-0.4426c2.46537,0 13.34143,0 17.58596,0c1.0588,0 1.29187,0.50162 1.29187,0.50162z" data-paper-data="{&quot;index&quot;:null}" fill="url(#color-1)"/><path d="M251.97731,168.02273v23.95455h-23.95455v-23.95455z" data-paper-data="{&quot;index&quot;:null}" fill-opacity="0.10196" fill="#000000"/></g></g></svg>