<svg version="1.1" xmlns="http://www.w3.org/2000/svg" xmlns:xlink="http://www.w3.org/1999/xlink" width="15.75" height="15.75" viewBox="0,0,15.75,15.75"><defs><radialGradient cx="240" cy="180" r="6.375" gradientUnits="userSpaceOnUse" id="color-1"><stop offset="0" stop-color="#d5fff0" stop-opacity="0.77255"/><stop offset="1" stop-color="#00ddff" stop-opacity="0.56471"/></radialGradient><radialGradient cx="240" cy="180" r="7.875" gradientUnits="userSpaceOnUse" id="color-2"><stop offset="0" stop-color="#b1f5ff"/><stop offset="1" stop-color="#b1f5ff" stop-opacity="0"/></radialGradient></defs><g transform="translate(-232.125,-172.125)"><g data-paper-data="{&quot;isPaintingLayer&quot;:true}" fill-rule="nonzero" stroke="none" stroke-width="0" stroke-linecap="butt" stroke-linejoin="miter" stroke-miterlimit="10" stroke-dasharray="" stroke-dashoffset="0" style="mix-blend-mode: normal"><path d="M233.625,180c0,-3.52082 2.85418,-6.375 6.375,-6.375c3.52082,0 6.375,2.85418 6.375,6.375c0,3.52082 -2.85418,6.375 -6.375,6.375c-3.52082,0 -6.375,-2.85418 -6.375,-6.375z" fill="url(#color-1)"/><path d="M232.125,180c0,-4.34924 3.52576,-7.875 7.875,-7.875c4.34924,0 7.875,3.52576 7.875,7.875c0,4.34924 -3.52576,7.875 -7.875,7.875c-4.34924,0 -7.875,-3.52576 -7.875,-7.875z" fill="url(#color-2)"/></g></g></svg>