<svg version="1.1" xmlns="http://www.w3.org/2000/svg" xmlns:xlink="http://www.w3.org/1999/xlink" width="79.87001" height="83.32629" viewBox="0,0,79.87001,83.32629"><g transform="translate(-199.70221,-138.53196)"><g data-paper-data="{&quot;isPaintingLayer&quot;:true}" fill-rule="nonzero" stroke-linecap="butt" stroke-linejoin="miter" stroke-miterlimit="10" stroke-dasharray="" stroke-dashoffset="0" style="mix-blend-mode: normal"><path d="M219.9849,176.39642v-0.38595h40.02207v0.38595z" fill="#333333" stroke="none" stroke-width="0"/><path d="M219.9849,172.39237v-0.38595h40.02207v0.38595z" fill="#333333" stroke="none" stroke-width="0"/><path d="M219.9849,180.39648v-0.38595h40.02207v0.38595z" fill="#333333" stroke="none" stroke-width="0"/><path d="M219.9849,184.39694v-0.38595h40.02207v0.38595z" fill="#333333" stroke="none" stroke-width="0"/><path d="M219.9849,200.38965v-0.38595h40.02207v0.38595z" fill="#333333" stroke="none" stroke-width="0"/><path d="M219.9849,196.38915v-0.38595h40.02207v0.38595z" fill="#333333" stroke="none" stroke-width="0"/><path d="M219.9849,192.38914v-0.38595h40.02207v0.38595z" fill="#333333" stroke="none" stroke-width="0"/><path d="M219.9849,188.38504v-0.38595h40.02207v0.38595z" fill="#333333" stroke="none" stroke-width="0"/><path d="M220.0065,204.405v-0.38595h40.02207v0.38595z" fill="#333333" stroke="none" stroke-width="0"/><path d="M219.9849,220.39766v-0.38595h40.02207v0.38595z" fill="#333333" stroke="none" stroke-width="0"/><path d="M219.9849,216.39719v-0.38595h40.02207v0.38595z" fill="#333333" stroke="none" stroke-width="0"/><path d="M219.9849,212.39713v-0.38595h40.02207v0.38595z" fill="#333333" stroke="none" stroke-width="0"/><path d="M219.9849,208.39309v-0.38595h40.02207v0.38595z" fill="#333333" stroke="none" stroke-width="0"/><path d="M219.19616,221.10825v-81.81713h41.62114v81.81713z" fill-opacity="0.6" fill="#1a1a1a" stroke-opacity="0.6" stroke="#666666" stroke-width="1.5"/><path d="M262.07222,203.81145v-64.76667h17v64.76667z" fill-opacity="0.48235" fill="#000000" stroke-opacity="0.6" stroke="#666666" stroke-width="1"/><path d="M200.20221,152.40696v-13.375h17.75v13.375z" fill-opacity="0.48235" fill="#000000" stroke-opacity="0.6" stroke="#666666" stroke-width="1"/><path d="M219.9849,152.39219v-0.38595h40.02207v0.38595z" fill="#333333" stroke="none" stroke-width="0"/><path d="M219.9849,148.39169v-0.38595h40.02207v0.38595z" fill="#333333" stroke="none" stroke-width="0"/><path d="M219.9849,144.39167v-0.38595h40.02207v0.38595z" fill="#333333" stroke="none" stroke-width="0"/><path d="M219.9849,140.38757v-0.38595h40.02207v0.38595z" fill="#333333" stroke="none" stroke-width="0"/><path d="M219.9849,168.38487v-0.38595h40.02207v0.38595z" fill="#333333" stroke="none" stroke-width="0"/><path d="M219.9849,164.38434v-0.38595h40.02207v0.38595z" fill="#333333" stroke="none" stroke-width="0"/><path d="M219.9849,160.38434v-0.38595h40.02207v0.38595z" fill="#333333" stroke="none" stroke-width="0"/><path d="M219.9849,156.38029v-0.38595h40.02207v0.38595z" fill="#333333" stroke="none" stroke-width="0"/><path d="M220.19911,220.34652h-0.38595v-80.25036h0.38595z" fill="#333333" stroke="none" stroke-width="0"/><path d="M224.1996,220.34652h-0.38595v-80.25036h0.38595z" fill="#333333" stroke="none" stroke-width="0"/><path d="M240.19228,220.30264h-0.38595v-80.20648h0.38595z" fill="#333333" stroke="none" stroke-width="0"/><path d="M236.19179,220.34652h-0.38595v-80.25036h0.38595z" fill="#333333" stroke="none" stroke-width="0"/><path d="M232.19177,220.34652h-0.38595v-80.25036h0.38595z" fill="#333333" stroke="none" stroke-width="0"/><path d="M228.18769,220.34652h-0.38595v-80.25036h0.38595z" fill="#333333" stroke="none" stroke-width="0"/><path d="M244.20762,220.30319h-0.38595v-80.25036h0.38595z" fill="#333333" stroke="none" stroke-width="0"/><path d="M260.20031,220.34652h-0.38595v-80.25036h0.38595z" fill="#333333" stroke="none" stroke-width="0"/><path d="M256.19982,220.34652h-0.38595v-80.25036h0.38595z" fill="#333333" stroke="none" stroke-width="0"/><path d="M252.19979,220.34652h-0.38595v-80.25036h0.38595z" fill="#333333" stroke="none" stroke-width="0"/><path d="M248.19572,220.34652h-0.38595v-80.25036h0.38595z" fill="#333333" stroke="none" stroke-width="0"/></g></g></svg>