<svg version="1.1" xmlns="http://www.w3.org/2000/svg" xmlns:xlink="http://www.w3.org/1999/xlink" width="209.33436" height="28.71826" viewBox="0,0,209.33436,28.71826"><defs><linearGradient x1="252.25462" y1="180.11658" x2="356.46831" y2="180.11658" gradientUnits="userSpaceOnUse" id="color-1"><stop offset="0" stop-color="#a3a3a3" stop-opacity="0.54902"/><stop offset="1" stop-color="#a3a3a3" stop-opacity="0"/></linearGradient></defs><g transform="translate(-152.45008,-164.79415)"><g data-paper-data="{&quot;isPaintingLayer&quot;:true}" fill-rule="nonzero" stroke-linecap="butt" stroke-linejoin="miter" stroke-miterlimit="10" stroke-dasharray="" stroke-dashoffset="0" style="mix-blend-mode: normal"><g><path d="M154.67958,191.87809c0,0 -1.72949,-0.88043 -1.72949,-3.8088c0,-5.25272 0,-13.12141 0,-16.09023c0,-2.25884 1.84433,-3.75103 1.84433,-3.75103c0,0 1.29153,-1.29242 5.29835,-1.29242c18.72159,0 160.41477,0 194.04697,0c4.56993,0 5.57043,1.14112 5.57043,1.14112c0,0 1.57428,0.97371 1.57428,3.9016c0,5.25333 0,13.12411 0,16.09304c0,2.25818 -1.26388,3.4003 -1.26388,3.4003c0,0 -1.31059,1.64133 -5.88,1.64133c-33.63009,0 -175.32094,0 -194.04528,0c-4.00814,0 -5.41574,-1.23491 -5.41574,-1.23491z" fill="#000000" stroke="none" stroke-width="0"/><path d="M157.6332,192.66194c0,0 -4.39944,-0.19241 -4.39944,-3.40734c0,-5.79827 -0.05739,-16.06502 -0.05739,-18.78212c0,-1.63592 3.50496,-3.08969 3.50496,-3.08969c0,0 3.49565,-0.31463 9.90193,-0.31463c16.21095,0 85.84856,0 85.84856,0v26.09681c0,0 -59.66056,0 -77.54874,0c-9.46403,0 -17.24988,-0.50305 -17.24988,-0.50305z" fill-opacity="0.54902" fill="#ffffff" stroke="none" stroke-width="0"/><path d="M333.67722,193.16498c-18.78179,0 -81.42261,0 -81.42261,0v-26.09682c0,0 73.11629,0 90.13704,0c6.7263,0 9.91451,1.03574 9.91451,1.03574c0,0 4.16209,0.73266 4.16209,2.36857c0,2.7171 0,11.32954 0,17.1278c0,3.21493 -5.46278,4.42538 -5.46278,4.42538c0,0 -7.39146,1.13933 -17.32826,1.13933z" data-paper-data="{&quot;index&quot;:null}" fill="url(#color-1)" stroke="none" stroke-width="0"/><path d="M154.9487,192.00178c0,0 -1.99862,-1.10471 -1.99862,-4.03308c0,-5.25272 0,-13.1214 0,-16.09022c0,-2.25884 1.84433,-3.75104 1.84433,-3.75104c0,0 1.29153,-1.29242 5.29835,-1.29242c18.72159,0 160.41477,0 194.04697,0c4.56993,0 5.57043,1.14112 5.57043,1.14112c0,0 1.57428,0.9737 1.57428,3.90159c0,5.25333 0,13.12412 0,16.09305c0,2.25818 -1.26388,3.40029 -1.26388,3.40029c0,0 -1.31059,1.64133 -5.88,1.64133c-33.63009,0 -175.32094,0 -194.04528,0c-4.00814,0 -5.41574,-1.23492 -5.41574,-1.23492z" fill="none" stroke="#ffffff" stroke-width="1"/></g><g font-family="Sans Serif" font-weight="normal" font-size="40" text-anchor="start"><text transform="translate(161.66453,185.70832) scale(0.42361,0.42361)" font-size="40" xml:space="preserve" fill="#cecece" fill-rule="nonzero" stroke="#cccccc" stroke-width="1.5" stroke-linecap="butt" stroke-linejoin="miter" stroke-miterlimit="10" stroke-dasharray="" stroke-dashoffset="0" font-family="Sans Serif" font-weight="normal" text-anchor="start" style="mix-blend-mode: normal"><tspan x="0" dy="0">Time</tspan></text><text transform="translate(161.66453,185.70832) scale(0.42361,0.42361)" font-size="40" xml:space="preserve" fill="#ffffff" fill-rule="nonzero" stroke="none" stroke-width="1" stroke-linecap="butt" stroke-linejoin="miter" stroke-miterlimit="10" stroke-dasharray="" stroke-dashoffset="0" font-family="Sans Serif" font-weight="normal" text-anchor="start" style="mix-blend-mode: normal"><tspan x="0" dy="0">Time</tspan></text></g><text transform="translate(323.56708,186.71081) scale(0.5,0.5)" font-size="40" xml:space="preserve" fill="#ffffff" fill-rule="nonzero" stroke="none" stroke-width="1" stroke-linecap="butt" stroke-linejoin="miter" stroke-miterlimit="10" stroke-dasharray="" stroke-dashoffset="0" font-family="Sans Serif" font-weight="normal" text-anchor="start" style="mix-blend-mode: normal"><tspan x="0" dy="0">.</tspan></text><text transform="translate(293.71723,186.71082) scale(0.5,0.5)" font-size="40" xml:space="preserve" fill="#ffffff" fill-rule="nonzero" stroke="none" stroke-width="1" stroke-linecap="butt" stroke-linejoin="miter" stroke-miterlimit="10" stroke-dasharray="" stroke-dashoffset="0" font-family="Sans Serif" font-weight="normal" text-anchor="start" style="mix-blend-mode: normal"><tspan x="0" dy="0">:</tspan></text></g></g></svg>