<svg version="1.1" xmlns="http://www.w3.org/2000/svg" xmlns:xlink="http://www.w3.org/1999/xlink" width="147.0158" height="27.02447" viewBox="0,0,147.0158,27.02447"><defs><linearGradient x1="194.64258" y1="180.02172" x2="309.63239" y2="180.02172" gradientUnits="userSpaceOnUse" id="color-1"><stop offset="0" stop-color="#0041a3" stop-opacity="0.54902"/><stop offset="1" stop-color="#0041a3" stop-opacity="0"/></linearGradient></defs><g transform="translate(-166.49211,-166.41775)"><g data-paper-data="{&quot;isPaintingLayer&quot;:true}" fill-rule="nonzero" stroke-linejoin="miter" stroke-miterlimit="10" stroke-dasharray="" stroke-dashoffset="0" style="mix-blend-mode: normal"><path d="M168.20426,191.71452c0,0 -1.21215,-0.87528 -1.21215,-3.78655c0,-5.22204 0,-13.04476 0,-15.99623c0,-2.24564 1.29264,-3.72912 1.29264,-3.72912c0,0 0.9052,-1.28487 3.71347,-1.28487c13.12144,0 112.43028,0 136.00216,0c3.20294,0 3.90416,1.13446 3.90416,1.13446c0,0 1.10337,0.96802 1.10337,3.8788c0,5.22264 0,13.04745 0,15.99904c0,2.24499 -0.88581,3.38043 -0.88581,3.38043c0,0 -0.91856,1.63174 -4.12113,1.63174c-23.5704,0 -122.8776,0 -136.00098,0c-2.80919,0 -3.79574,-1.2277 -3.79574,-1.2277z" fill="#000000" stroke="none" stroke-width="0" stroke-linecap="butt"/><path d="M168.59229,191.86124c0,0 -1.44158,-1.20338 -1.44158,-4.39953c0,-5.7644 0,-14.32651 0,-17.02774c0,-1.62636 1.09834,-2.35474 1.09834,-2.35474c0,0 0.84134,-1.02969 2.61635,-1.02969c4.49162,0 23.78635,0 23.78635,0v25.94437c0,0 -16.53035,0 -21.48669,0c-2.62223,0 -4.57277,-1.13267 -4.57277,-1.13267z" fill-opacity="0.54902" fill="#0066ff" stroke="none" stroke-width="0" stroke-linecap="butt"/><path d="M284.48465,192.99389c-20.72391,0 -89.84208,0 -89.84208,0v-25.94437c0,0 80.67685,0 99.45761,0c7.42183,0 10.93971,1.02969 10.93971,1.02969c0,0 4.59248,0.72838 4.59248,2.35474c0,2.70123 0,11.26335 0,17.02774c0,3.19615 -6.02765,4.39953 -6.02765,4.39953c0,0 -8.15577,1.13267 -19.12008,1.13267z" data-paper-data="{&quot;index&quot;:null}" fill="url(#color-1)" stroke="none" stroke-width="0" stroke-linecap="butt"/><path d="M168.20426,191.71452c0,0 -1.21215,-0.87528 -1.21215,-3.78655c0,-5.22204 0,-13.04476 0,-15.99623c0,-2.24564 1.29264,-3.72912 1.29264,-3.72912c0,0 0.9052,-1.28487 3.71347,-1.28487c13.12144,0 112.43028,0 136.00216,0c3.20294,0 3.90416,1.13446 3.90416,1.13446c0,0 1.10337,0.96802 1.10337,3.8788c0,5.22264 0,13.04745 0,15.99904c0,2.24499 -0.88581,3.38043 -0.88581,3.38043c0,0 -0.91856,1.63174 -4.12113,1.63174c-23.5704,0 -122.8776,0 -136.00098,0c-2.80919,0 -3.79574,-1.2277 -3.79574,-1.2277z" fill="none" stroke="#579aff" stroke-width="1" stroke-linecap="butt"/><text transform="translate(200.90809,185.12477) scale(0.36643,0.36643)" font-size="40" xml:space="preserve" fill="#ffffff" fill-rule="nonzero" stroke="none" stroke-width="1" stroke-linecap="butt" stroke-linejoin="miter" stroke-miterlimit="10" stroke-dasharray="" stroke-dashoffset="0" font-family="Sans Serif" font-weight="normal" text-anchor="start" style="mix-blend-mode: normal"><tspan x="0" dy="0">40 LINE</tspan></text><g fill="#ffffff" stroke="none" stroke-width="0" stroke-linecap="butt"><path d="M185.47889,173.47437l1.16705,-1.38977l1.33613,1.122l-1.16705,1.38978z"/><path d="M185.50776,172.55205c0,0 -0.0256,-0.08147 0.06272,-0.18664c0.1612,-0.19198 0.40307,-0.48 0.48299,-0.57517c0.05103,-0.06076 0.11496,-0.05752 0.11496,-0.05752c0,0 0.06741,-0.00885 0.14961,0.06018c0.24508,0.2058 1.48796,1.24949 1.97159,1.65561c0.11973,0.10055 0.11259,0.17548 0.11259,0.17548c0,0 0.01418,0.06531 -0.07477,0.17124c-0.14148,0.16848 -0.34064,0.40565 -0.4231,0.50384c-0.07182,0.08552 -0.13849,0.10397 -0.13849,0.10397c0,0 -0.09757,0.0335 -0.21349,-0.06384c-0.46589,-0.39122 -1.66174,-1.39542 -1.92971,-1.62045c-0.10405,-0.08738 -0.1149,-0.1667 -0.1149,-0.1667z"/></g><g data-paper-data="{&quot;index&quot;:null}" fill="#ffffff" stroke="none" stroke-width="0" stroke-linecap="butt"><path d="M173.92878,174.59788l-1.16705,-1.38978l1.33614,-1.12201l1.16704,1.38978z"/><path d="M175.12115,172.72026c-0.26797,0.22502 -1.46383,1.22923 -1.92972,1.62045c-0.11592,0.09734 -0.21348,0.06383 -0.21348,0.06383c0,0 -0.06667,-0.01846 -0.13849,-0.10398c-0.08246,-0.09819 -0.28161,-0.33535 -0.42309,-0.50383c-0.08896,-0.10593 -0.07478,-0.17124 -0.07478,-0.17124c0,0 -0.00714,-0.07493 0.11259,-0.17548c0.48363,-0.40612 1.72651,-1.44982 1.97159,-1.65562c0.0822,-0.06903 0.14961,-0.06018 0.14961,-0.06018c0,0 0.06393,-0.00322 0.11495,0.05754c0.07992,0.09517 0.32179,0.38319 0.48299,0.57517c0.08832,0.10518 0.06272,0.18664 0.06272,0.18664c0,0 -0.01085,0.07933 -0.1149,0.16671z"/></g><text transform="translate(175.14666,183.88186) scale(0.2209,0.2209)" font-size="40" xml:space="preserve" fill="#ffffff" fill-rule="nonzero" stroke="none" stroke-width="1" stroke-linecap="butt" stroke-linejoin="miter" stroke-miterlimit="10" stroke-dasharray="" stroke-dashoffset="0" font-family="Sans Serif" font-weight="normal" text-anchor="start" style="mix-blend-mode: normal"><tspan x="0" dy="0">40</tspan></text><g fill="none" stroke="#ffffff" stroke-width="0.5" stroke-linecap="round"><g><path d="M177.2422,186.25558l-0.22808,0.39767"/><path d="M183.6519,175.08033l-0.22808,0.39766"/></g><g><g><path d="M186.54528,180.86678h0.45843"/><path d="M173.66232,180.86678h0.45843"/></g><g><path d="M186.08825,184.23953l-0.39552,-0.23179"/><path d="M174.57778,177.49404l0.39552,0.23178"/></g><g><path d="M174.56289,184.214l0.39654,-0.23004"/><path d="M186.10313,177.51957l-0.39654,0.23002"/></g><g><g><path d="M180.33301,187.07905v0.45843"/><path d="M180.33301,174.19609v0.45843"/></g><g><path d="M183.44923,186.24093l0.22995,0.39658"/><path d="M176.98685,175.09606l0.22996,0.39658"/></g></g></g></g><path d="M172.02266,180.86678c0,-4.58969 3.72067,-8.31036 8.31036,-8.31036c4.58969,0 8.31036,3.72068 8.31036,8.31036c0,4.58969 -3.72068,8.31036 -8.31036,8.31036c-4.58969,0 -8.31036,-3.72067 -8.31036,-8.31036z" fill="none" stroke="#ffffff" stroke-width="1.5" stroke-linecap="butt"/><g fill="#ffffff" stroke="none" stroke-width="0" stroke-linecap="butt"><path d="M178.76485,172.1092v-3.26224h3.13632v3.26224z"/><path d="M177.73841,170.80617c0,0 -0.12942,-0.08255 -0.12942,-0.32944c0,-0.45062 0,-1.12669 0,-1.35009c0,-0.14263 0.09174,-0.21208 0.09174,-0.21208c0,0 0.08255,-0.0901 0.27551,-0.0901c0.57528,0 3.4927,0 4.62793,0c0.28105,0 0.35785,0.1114 0.35785,0.1114c0,0 0.09502,0.07352 0.09502,0.32218c0,0.39547 0,0.95217 0,1.18266c0,0.20075 -0.07045,0.30322 -0.07045,0.30322c0,0 -0.09558,0.15891 -0.36768,0.15891c-1.09358,0 -3.90062,0 -4.52963,0c-0.24425,0 -0.35087,-0.09666 -0.35087,-0.09666z"/></g></g></g></svg>