<svg version="1.1" xmlns="http://www.w3.org/2000/svg" xmlns:xlink="http://www.w3.org/1999/xlink" width="97.77955" height="13.56932" viewBox="0,0,97.77955,13.56932"><g transform="translate(-187.56161,-122.68858)"><g data-paper-data="{&quot;isPaintingLayer&quot;:true}" stroke-linecap="butt" stroke-linejoin="miter" stroke-miterlimit="10" stroke-dasharray="" stroke-dashoffset="0" style="mix-blend-mode: normal"><g fill-rule="evenodd" stroke="none" stroke-width="1"><path d="M193.83744,131.04601c0,-0.22305 0.18173,-0.40386 0.39993,-0.40386h2.80907v0.94262c0,0.36554 0.29429,0.66188 0.66188,0.66188h0.94262v3.61197c0,0.22052 -0.18282,0.39928 -0.40212,0.39928h-4.00926c-0.22208,0 -0.40212,-0.18049 -0.40212,-0.40387z" fill="#ffffff"/><path d="M197.44757,130.64214l1.20337,1.20337h-0.80267c-0.22131,0 -0.40071,-0.17756 -0.40071,-0.4007z" fill="#ffffff"/><path d="M196.38375,135.00525c-0.03454,0.03454 -0.08059,0.05181 -0.12665,0.05181c-0.05182,0 -0.09788,-0.01727 -0.13241,-0.05181l-0.73689,-0.73689c-0.05182,-0.05757 -0.06908,-0.13241 -0.0403,-0.20149c0.02878,-0.06908 0.09212,-0.10939 0.16696,-0.10939h0.29936l0.14392,-1.042c0.01152,-0.0806 0.05181,-0.15544 0.11514,-0.20149c0.06332,-0.05182 0.14969,-0.07483 0.22452,-0.06332c0.13817,0.02245 0.24755,0.13241 0.26481,0.26482l0.14968,1.042h0.28209c0.07484,0 0.13816,0.04606 0.16694,0.11514c0.02878,0.06332 0.01151,0.14392 -0.0403,0.19574z" fill="#000000"/></g><path d="M200.29632,131.15049h4.40756c0.16297,0 0.29032,0.14072 0.27411,0.30288l-0.40768,4.07681c-0.03286,0.32858 -0.30935,0.57881 -0.63957,0.57881h-2.86125c-0.33023,0 -0.60672,-0.25023 -0.63957,-0.57881l-0.40768,-4.07681c-0.01622,-0.16216 0.11113,-0.30288 0.2741,-0.30288zM202.77558,134.36434v-1.83648c0,-0.15214 -0.12333,-0.27547 -0.27547,-0.27547c-0.15214,0 -0.27547,0.12333 -0.27547,0.27547v1.83648c0,0.15214 0.12333,0.27547 0.27547,0.27547c0.15214,0 0.27547,-0.12333 0.27547,-0.27547zM203.69382,134.36434v-1.83648c0,-0.15214 -0.12333,-0.27547 -0.27547,-0.27547c-0.15214,0 -0.27547,0.12333 -0.27547,0.27547v1.83648c0,0.15214 0.12333,0.27547 0.27547,0.27547c0.15214,0 0.27547,-0.12333 0.27547,-0.27547zM201.85734,134.36434v-1.83648c0,-0.15214 -0.12333,-0.27547 -0.27547,-0.27547c-0.15214,0 -0.27547,0.12333 -0.27547,0.27547v1.83648c0,0.15214 0.12333,0.27547 0.27547,0.27547c0.15214,0 0.27547,-0.12333 0.27547,-0.27547zM200.11268,131.42595h4.77486zM200.11268,131.05865h4.77486c0.20285,0 0.36729,0.16444 0.36729,0.36729c0,0.20285 -0.16444,0.3673 -0.36729,0.3673h-4.77486c-0.20285,0 -0.36729,-0.16445 -0.36729,-0.3673c0,-0.20285 0.16444,-0.36729 0.36729,-0.36729zM202.95923,131.15049v-0.45912c0,-0.05071 -0.04111,-0.09183 -0.09182,-0.09183h-0.7346c-0.05071,0 -0.09182,0.04112 -0.09182,0.09183v0.45912zM202.13281,130.0486h0.7346c0.35499,0 0.64277,0.28778 0.64277,0.64277v1.01006h-2.02013v-1.01006c0,-0.35499 0.28778,-0.64277 0.64277,-0.64277z" fill="#ffffff" fill-rule="nonzero" stroke="none" stroke-width="1"/><path d="M212.90644,135.5851v-4.17018h4.17018v4.17018z" fill="none" fill-rule="nonzero" stroke-opacity="0.46667" stroke="#ffffff" stroke-width="0.5"/><path d="M219.16062,135.5851v-4.17018h4.17018v4.17018z" fill="#0fdbdb" fill-rule="nonzero" stroke="none" stroke-width="0"/><path d="M225.40656,135.5851v-4.17018h4.17018v4.17018z" fill="#dbc70f" fill-rule="nonzero" stroke="none" stroke-width="0"/><path d="M231.66075,135.5851v-4.17018h4.17018v4.17018z" fill="#38db0f" fill-rule="nonzero" stroke="none" stroke-width="0"/><path d="M237.91493,135.5851v-4.17018h4.17018v4.17018z" fill="#db0f0f" fill-rule="nonzero" stroke="none" stroke-width="0"/><path d="M244.16087,135.5851v-4.17018h4.17018v4.17018z" fill="#0f24db" fill-rule="nonzero" stroke="none" stroke-width="0"/><path d="M250.41505,135.5851v-4.17018h4.17018v4.17018z" fill="#db8a0f" fill-rule="nonzero" stroke="none" stroke-width="0"/><path d="M256.66923,135.5851v-4.17018h4.17018v4.17018z" fill="#b30fdb" fill-rule="nonzero" stroke="none" stroke-width="0"/><path d="M262.92341,135.5851v-4.17018h4.17018v4.17018z" fill="#c9c9c9" fill-rule="nonzero" stroke="none" stroke-width="0"/><text transform="translate(194.16675,130.07026) scale(0.04486,0.04486)" font-size="40" xml:space="preserve" fill="#ffffff" fill-rule="nonzero" stroke="none" stroke-width="1" stroke-linecap="butt" stroke-linejoin="miter" stroke-miterlimit="10" stroke-dasharray="" stroke-dashoffset="0" font-family="Sans Serif" font-weight="normal" text-anchor="start" style="mix-blend-mode: normal"><tspan x="0" dy="0">Load</tspan></text><g fill-rule="evenodd" stroke="none" stroke-width="1"><path d="M187.56161,131.04601c0,-0.22305 0.18173,-0.40386 0.39994,-0.40386h2.80906v0.94262c0,0.36554 0.29429,0.66188 0.66188,0.66188h0.94262v3.61197c0,0.22052 -0.18282,0.39928 -0.40212,0.39928h-4.00926c-0.22208,0 -0.40212,-0.18049 -0.40212,-0.40387z" fill="#ffffff"/><path d="M191.17173,130.64214l1.20337,1.20337h-0.80267c-0.22131,0 -0.40071,-0.17756 -0.40071,-0.4007z" fill="#ffffff"/><path d="M190.84481,133.43646c0.05181,0.05182 0.06908,0.13241 0.0403,0.19574c-0.02878,0.06908 -0.09211,0.11514 -0.16694,0.11514h-0.28209l-0.14968,1.042c-0.01727,0.13241 -0.12664,0.24237 -0.26481,0.26482c-0.07484,0.01151 -0.1612,-0.01151 -0.22452,-0.06332c-0.06332,-0.04605 -0.10362,-0.12089 -0.11514,-0.20149l-0.14392,-1.042h-0.29936c-0.07484,0 -0.13817,-0.0403 -0.16696,-0.10939c-0.02878,-0.06909 -0.01152,-0.14392 0.0403,-0.20149l0.73688,-0.73689c0.03454,-0.03454 0.0806,-0.05181 0.13241,-0.05181c0.04605,0 0.09211,0.01727 0.12665,0.05181z" data-paper-data="{&quot;index&quot;:null}" fill="#000000"/></g><text transform="translate(187.89091,130.07026) scale(0.04486,0.04486)" font-size="40" xml:space="preserve" fill="#ffffff" fill-rule="nonzero" stroke="none" stroke-width="1" stroke-linecap="butt" stroke-linejoin="miter" stroke-miterlimit="10" stroke-dasharray="" stroke-dashoffset="0" font-family="Sans Serif" font-weight="normal" text-anchor="start" style="mix-blend-mode: normal"><tspan x="0" dy="0">Save</tspan></text><path d="M276.1092,135.79756l-0.00032,-2.31387l0.00032,-2.30897l3.70925,2.31142z" fill="#ffffff" fill-rule="nonzero" stroke="none" stroke-width="0"/><g fill="#ffffff" fill-rule="nonzero" stroke="none" stroke-width="0"><path d="M282.21117,135.77767v-4.6208h0.83559v4.6208z"/><path d="M284.50557,135.77767v-4.6208h0.83559v4.6208z"/></g><path d="M257.69251,127.31142l-0.00023,-2.31387l0.00023,-2.30897l2.6532,2.31142z" fill="#ffffff" fill-rule="nonzero" stroke="none" stroke-width="0"/><path d="M219.87741,125l2.6532,-2.31142l0.00023,2.30897l-0.00023,2.31387z" data-paper-data="{&quot;index&quot;:null}" fill="#ffffff" fill-rule="nonzero" stroke="none" stroke-width="0"/></g></g></svg>