<svg version="1.1" xmlns="http://www.w3.org/2000/svg" xmlns:xlink="http://www.w3.org/1999/xlink" width="273.92921" height="175.82296" viewBox="0,0,273.92921,175.82296"><g transform="translate(-103.0354,-92.08852)"><g data-paper-data="{&quot;isPaintingLayer&quot;:true}" fill-rule="nonzero" stroke-linecap="butt" stroke-linejoin="miter" stroke-miterlimit="10" stroke-dasharray="" stroke-dashoffset="0" style="mix-blend-mode: normal"><path d="M104.78541,266.16148v-172.32296h270.42921v172.32296z" fill="#212932" stroke="#868686" stroke-width="3.5"/><g stroke="none" stroke-width="1"><path d="M263.98019,154.84596c-0.88481,1.53501 -2.53707,2.48778 -4.30891,2.48778h-39.34265c-1.77173,0 -3.42256,-0.95287 -4.30881,-2.48778c-0.88625,-1.53492 -0.88625,-3.44123 0,-4.97615l19.67162,-34.06971c0.88558,-1.53492 2.53563,-2.48846 4.30813,-2.48846c1.7726,0 3.4241,0.95354 4.31035,2.48846l19.67017,34.07125c0.88635,1.53337 0.88635,3.43969 0.0001,4.9746zM230.80147,153.14612c0,-1.70088 -7.9515,1.24334 -9.65229,1.24334c-1.70088,0 3.92247,-5.01958 3.92247,-3.3187c0,1.70146 9.33652,-4.96102 11.0374,-4.96102c1.70079,0 -5.30759,8.73793 -5.30759,7.03638zM243.08067,127.9376c0,-1.70156 -6.48145,14.64593 -8.18224,14.64593c-1.70088,0 2.02006,-16.34758 2.02006,-14.64593l8.18806,-1.97864c0,1.04847 1.19489,15.04131 2.24403,15.04131c1.0476,0 -5.45219,1.91815 -5.45219,0.86978z" fill="#000000"/><path d="M263.98019,154.84596c-0.88481,1.53501 -2.53707,2.48778 -4.30891,2.48778h-39.34265c-1.77173,0 -3.42256,-0.95287 -4.30881,-2.48778c-0.88625,-1.53492 -0.88625,-3.44123 0,-4.97615l19.67162,-34.06971c0.88558,-1.53492 2.53563,-2.48846 4.30813,-2.48846c1.7726,0 3.4241,0.95354 4.31035,2.48846l19.67017,34.07125c0.88635,1.53337 0.88635,3.43969 0.0001,4.9746zM243.08067,148.6495c0,-1.70088 -1.37953,-3.08032 -3.08032,-3.08032c-1.70088,0 -3.08186,1.37944 -3.08186,3.08032c0,1.70146 1.38097,3.08099 3.08186,3.08099c1.70079,0 3.08032,-1.37944 3.08032,-3.08099zM243.08067,127.9376c0,-1.70156 -1.37953,-3.08109 -3.08032,-3.08109c-1.70088,0 -3.08186,1.37944 -3.08186,3.08109l1.18372,13.93244c0,1.04847 0.84899,1.89737 1.89813,1.89737c1.0476,0 1.89804,-0.849 1.89804,-1.89737z" fill="#ffd600"/></g><text transform="translate(154.31486,220.71135) scale(0.38948,0.38948)" font-size="40" xml:space="preserve" fill="#ffffff" fill-rule="nonzero" stroke="none" stroke-width="1" stroke-linecap="butt" stroke-linejoin="miter" stroke-miterlimit="10" stroke-dasharray="" stroke-dashoffset="0" font-family="Sans Serif" font-weight="normal" text-anchor="start" style="mix-blend-mode: normal"><tspan x="0" dy="0">無効なセーブコードです</tspan></text><text transform="translate(224.20753,174.83537) scale(0.32615,0.32615)" font-size="40" xml:space="preserve" fill="#ffffff" fill-rule="nonzero" stroke="none" stroke-width="1" stroke-linecap="butt" stroke-linejoin="miter" stroke-miterlimit="10" stroke-dasharray="" stroke-dashoffset="0" font-family="Sans Serif" font-weight="normal" text-anchor="start" style="mix-blend-mode: normal"><tspan x="0" dy="0">Error</tspan></text></g></g></svg>