<svg version="1.1" xmlns="http://www.w3.org/2000/svg" xmlns:xlink="http://www.w3.org/1999/xlink" width="23.95456" height="23.95456" viewBox="0,0,23.95456,23.95456"><g transform="translate(-228.02273,-168.02273)"><g data-paper-data="{&quot;isPaintingLayer&quot;:true}" fill-rule="nonzero" stroke="none" stroke-width="0" stroke-linecap="butt" stroke-linejoin="miter" stroke-miterlimit="10" stroke-dasharray="" stroke-dashoffset="0" style="mix-blend-mode: normal"><path d="M251.51062,191.4106c0,0 -0.26329,0.56667 -1.45941,0.56667c-4.795,0 -17.08157,0 -19.86667,0c-1.09601,0 -1.69514,-0.5 -1.69514,-0.5c0,0 -0.46667,-0.56579 -0.46667,-1.6618c0,-2.75119 0,-14.75008 0,-19.66441c0,-1.30158 0.54762,-1.58071 0.54762,-1.58071c0,0 0.46223,-0.54762 1.51384,-0.54762c2.75617,0 15.23951,0 20.02143,0c1.16399,0 1.44309,0.59524 1.44309,0.59524c0,0 0.42857,0.16858 0.42857,1.41404c0,4.8613 0,17.06038 0,19.8168c0,1.08131 -0.46667,1.56181 -0.46667,1.56181z" data-paper-data="{&quot;index&quot;:null}" fill="#c7c7c7"/><path d="M249.46319,189.38096c0,0 -0.21646,0.46588 -1.19982,0.46588c-3.9421,0 -14.04322,0 -16.33292,0c-0.90106,0 -1.39362,-0.41106 -1.39362,-0.41106c0,0 -0.38366,-0.46516 -0.38366,-1.36622c0,-2.26182 0,-12.12643 0,-16.16664c0,-1.07006 0.45021,-1.29954 0.45021,-1.29954c0,0 0.38001,-0.45021 1.24456,-0.45021c2.26592,0 12.52882,0 16.46016,0c0.95695,0 1.1864,0.48936 1.1864,0.48936c0,0 0.35234,0.1386 0.35234,1.16252c0,3.9966 0,14.0258 0,16.29192c0,0.88897 -0.38366,1.28401 -0.38366,1.28401z" data-paper-data="{&quot;index&quot;:null}" fill="#ffffff"/><path d="M233.63158,185.22347c0.63253,0 1.14531,0.51278 1.14531,1.14531c0,0.63253 -0.51278,1.14531 -1.14531,1.14531c-0.63253,0 -1.14531,-0.51278 -1.14531,-1.14531c0,-0.63253 0.51278,-1.14531 1.14531,-1.14531z" fill="#c7c7c7"/><path d="M246.36878,172.48627c0.63253,0 1.14531,0.51278 1.14531,1.14531c0,0.63253 -0.51278,1.14531 -1.14531,1.14531c-0.63253,0 -1.14531,-0.51278 -1.14531,-1.14531c0,-0.63253 0.51278,-1.14531 1.14531,-1.14531z" fill="#c7c7c7"/><path d="M232.48627,173.63158c0,-0.63253 0.51278,-1.14531 1.14531,-1.14531c0.63253,0 1.14531,0.51278 1.14531,1.14531c0,0.63253 -0.51278,1.14531 -1.14531,1.14531c-0.63253,0 -1.14531,-0.51278 -1.14531,-1.14531z" fill="#c7c7c7"/><path d="M245.22347,186.36878c0,-0.63253 0.51278,-1.14531 1.14531,-1.14531c0.63253,0 1.14531,0.51278 1.14531,1.14531c0,0.63253 -0.51278,1.14531 -1.14531,1.14531c-0.63253,0 -1.14531,-0.51278 -1.14531,-1.14531z" fill="#c7c7c7"/><path d="M251.97729,168.02274v23.95455h-23.95455v-23.95455z" data-paper-data="{&quot;index&quot;:null}" fill-opacity="0.10196" fill="#000000"/></g></g></svg>