<svg version="1.1" xmlns="http://www.w3.org/2000/svg" xmlns:xlink="http://www.w3.org/1999/xlink" width="23.97003" height="24.03255" viewBox="0,0,23.97003,24.03255"><defs><linearGradient x1="234.00004" y1="167.97921" x2="234.00004" y2="191.89589" gradientUnits="userSpaceOnUse" id="color-1"><stop offset="0" stop-color="#cc1c1c"/><stop offset="1" stop-color="#ff3232"/></linearGradient><linearGradient x1="240.00004" y1="179.9448" x2="240.00004" y2="191.9303" gradientUnits="userSpaceOnUse" id="color-2"><stop offset="0" stop-color="#ff0000"/><stop offset="1" stop-color="#920000"/></linearGradient><linearGradient x1="240.00003" y1="171.20306" x2="240.00003" y2="180.03231" gradientUnits="userSpaceOnUse" id="color-3"><stop offset="0" stop-color="#ffa6a6"/><stop offset="1" stop-color="#ff2828"/></linearGradient></defs><g transform="translate(-228.00728,-167.94477)"><g data-paper-data="{&quot;isPaintingLayer&quot;:true}" fill-rule="nonzero" stroke="none" stroke-width="0" stroke-linecap="butt" stroke-linejoin="miter" stroke-miterlimit="10" stroke-dasharray="" stroke-dashoffset="0" style="mix-blend-mode: normal"><path d="M251.97732,168.02278v23.95455h-23.95455v-23.95455z" data-paper-data="{&quot;index&quot;:null}" fill="#d60000"/><path d="M239.9928,179.93756l-11.95832,11.95833l-0.02719,-11.93115l0.02719,-11.98552z" data-paper-data="{&quot;index&quot;:null}" fill="url(#color-1)"/><path d="M251.95835,191.9031l-11.98551,0.02718l-11.93115,-0.02718l11.95834,-11.95832z" data-paper-data="{&quot;index&quot;:null}" fill="url(#color-2)"/><path d="M228.0417,167.97197l11.98551,-0.02719l11.93115,0.02719l-11.95834,11.95832z" data-paper-data="{&quot;index&quot;:null}" fill="#ff5d5d"/><path d="M248.797,171.20306v17.59397h-17.59397v-17.59397z" data-paper-data="{&quot;index&quot;:null}" fill="#ff0000"/><path d="M248.797,171.20306l-0.05883,1.77044c0,0 -7.59561,1.20292 -10.21532,2.25749c-3.133,1.2612 -7.31983,4.80133 -7.31983,4.80133v-8.82926z" data-paper-data="{&quot;index&quot;:null}" fill="url(#color-3)"/></g></g></svg>